<svg xmlns="http://www.w3.org/2000/svg" xmlns:xlink="http://www.w3.org/1999/xlink" width="120" zoomAndPan="magnify" viewBox="0 0 90 44.999999" height="60" preserveAspectRatio="xMidYMid meet" version="1.0"><defs><g/><clipPath id="cc6330df79"><path d="M 74 11.621094 L 89.976562 11.621094 L 89.976562 40.734375 L 74 40.734375 Z M 74 11.621094 " clip-rule="nonzero"/></clipPath><clipPath id="cdbb1c8418"><path d="M 0 4.25 L 16 4.25 L 16 33.367188 L 0 33.367188 Z M 0 4.25 " clip-rule="nonzero"/></clipPath><clipPath id="ce780768e4"><path d="M 23.34375 6.839844 L 25.617188 6.839844 L 25.617188 9.113281 L 23.34375 9.113281 Z M 23.34375 6.839844 " clip-rule="nonzero"/></clipPath><clipPath id="78625e45e4"><path d="M 24.480469 9.113281 C 25.109375 9.113281 25.617188 8.605469 25.617188 7.976562 C 25.617188 7.347656 25.109375 6.839844 24.480469 6.839844 C 23.855469 6.839844 23.34375 7.347656 23.34375 7.976562 C 23.34375 8.605469 23.855469 9.113281 24.480469 9.113281 Z M 24.480469 9.113281 " clip-rule="nonzero"/></clipPath><clipPath id="0b7233baec"><path d="M 20.070312 6.839844 L 22.34375 6.839844 L 22.34375 9.113281 L 20.070312 9.113281 Z M 20.070312 6.839844 " clip-rule="nonzero"/></clipPath><clipPath id="6316450a2b"><path d="M 21.207031 9.113281 C 21.832031 9.113281 22.34375 8.605469 22.34375 7.976562 C 22.34375 7.347656 21.832031 6.839844 21.207031 6.839844 C 20.578125 6.839844 20.070312 7.347656 20.070312 7.976562 C 20.070312 8.605469 20.578125 9.113281 21.207031 9.113281 Z M 21.207031 9.113281 " clip-rule="nonzero"/></clipPath><clipPath id="a64df30506"><path d="M 16.78125 6.839844 L 19.054688 6.839844 L 19.054688 9.113281 L 16.78125 9.113281 Z M 16.78125 6.839844 " clip-rule="nonzero"/></clipPath><clipPath id="e1a1253600"><path d="M 17.917969 9.113281 C 18.546875 9.113281 19.054688 8.605469 19.054688 7.976562 C 19.054688 7.347656 18.546875 6.839844 17.917969 6.839844 C 17.292969 6.839844 16.78125 7.347656 16.78125 7.976562 C 16.78125 8.605469 17.292969 9.113281 17.917969 9.113281 Z M 17.917969 9.113281 " clip-rule="nonzero"/></clipPath></defs><g fill="#ffffff" fill-opacity="1"><g transform="translate(5.638618, 28.4155)"><g><path d="M 10.34375 -5.015625 C 10.34375 -4.359375 10.21875 -3.75 9.96875 -3.1875 C 9.726562 -2.625 9.398438 -2.125 8.984375 -1.6875 C 8.566406 -1.25 8.082031 -0.867188 7.53125 -0.546875 C 6.988281 -0.234375 6.421875 0.0078125 5.828125 0.1875 C 5.390625 0.320312 4.953125 0.410156 4.515625 0.453125 C 4.085938 0.492188 3.648438 0.515625 3.203125 0.515625 C 2.796875 0.515625 2.398438 0.476562 2.015625 0.40625 C 1.628906 0.34375 1.238281 0.25 0.84375 0.125 C 0.789062 0.09375 0.742188 0.0703125 0.703125 0.0625 C 0.660156 0.0507812 0.625 0.0234375 0.59375 -0.015625 C 0.550781 -0.078125 0.507812 -0.234375 0.46875 -0.484375 C 0.425781 -0.734375 0.390625 -1.003906 0.359375 -1.296875 C 0.328125 -1.597656 0.300781 -1.878906 0.28125 -2.140625 C 0.257812 -2.410156 0.25 -2.59375 0.25 -2.6875 C 0.25 -2.800781 0.273438 -2.875 0.328125 -2.90625 C 0.378906 -2.9375 0.460938 -2.953125 0.578125 -2.953125 C 0.742188 -2.953125 0.851562 -2.945312 0.90625 -2.9375 C 0.96875 -2.9375 1 -2.859375 1 -2.703125 C 1 -1.960938 1.195312 -1.390625 1.59375 -0.984375 C 2 -0.578125 2.578125 -0.375 3.328125 -0.375 C 3.867188 -0.375 4.425781 -0.472656 5 -0.671875 C 5.582031 -0.878906 6.109375 -1.164062 6.578125 -1.53125 C 7.046875 -1.90625 7.429688 -2.34375 7.734375 -2.84375 C 8.035156 -3.351562 8.1875 -3.910156 8.1875 -4.515625 C 8.1875 -4.867188 8.101562 -5.207031 7.9375 -5.53125 C 7.78125 -5.863281 7.546875 -6.113281 7.234375 -6.28125 C 7.078125 -6.363281 6.875 -6.4375 6.625 -6.5 C 6.382812 -6.5625 6.125 -6.617188 5.84375 -6.671875 C 5.570312 -6.722656 5.300781 -6.769531 5.03125 -6.8125 C 4.769531 -6.851562 4.554688 -6.890625 4.390625 -6.921875 C 3.515625 -7.066406 2.820312 -7.398438 2.3125 -7.921875 C 1.800781 -8.441406 1.546875 -9.160156 1.546875 -10.078125 C 1.546875 -10.847656 1.710938 -11.53125 2.046875 -12.125 C 2.378906 -12.726562 2.816406 -13.234375 3.359375 -13.640625 C 3.910156 -14.054688 4.53125 -14.375 5.21875 -14.59375 C 5.914062 -14.8125 6.613281 -14.921875 7.3125 -14.921875 C 7.375 -14.921875 7.515625 -14.914062 7.734375 -14.90625 C 7.953125 -14.90625 8.175781 -14.882812 8.40625 -14.84375 C 8.644531 -14.8125 8.859375 -14.765625 9.046875 -14.703125 C 9.234375 -14.648438 9.328125 -14.566406 9.328125 -14.453125 C 9.328125 -14.398438 9.316406 -14.304688 9.296875 -14.171875 C 9.285156 -14.035156 9.269531 -13.890625 9.25 -13.734375 C 9.226562 -13.585938 9.195312 -13.453125 9.15625 -13.328125 C 9.125 -13.210938 9.085938 -13.15625 9.046875 -13.15625 C 8.984375 -13.15625 8.90625 -13.175781 8.8125 -13.21875 C 8.414062 -13.351562 7.988281 -13.457031 7.53125 -13.53125 C 7.082031 -13.613281 6.648438 -13.65625 6.234375 -13.65625 C 5.835938 -13.65625 5.4375 -13.597656 5.03125 -13.484375 C 4.632812 -13.378906 4.265625 -13.210938 3.921875 -12.984375 C 3.578125 -12.753906 3.296875 -12.472656 3.078125 -12.140625 C 2.867188 -11.804688 2.765625 -11.414062 2.765625 -10.96875 C 2.765625 -10.550781 2.851562 -10.21875 3.03125 -9.96875 C 3.21875 -9.71875 3.453125 -9.507812 3.734375 -9.34375 C 4.023438 -9.175781 4.351562 -9.054688 4.71875 -8.984375 C 5.09375 -8.910156 5.46875 -8.84375 5.84375 -8.78125 C 6.21875 -8.726562 6.578125 -8.679688 6.921875 -8.640625 C 7.273438 -8.597656 7.582031 -8.546875 7.84375 -8.484375 C 8.664062 -8.242188 9.285156 -7.816406 9.703125 -7.203125 C 10.128906 -6.585938 10.34375 -5.859375 10.34375 -5.015625 Z M 10.34375 -5.015625 "/></g></g></g><g clip-path="url(#cc6330df79)"><path fill="#178fc7" d="M 74.464844 39.292969 L 87.574219 26.183594 L 74.464844 13.070312 L 75.675781 11.859375 L 90 26.183594 L 75.675781 40.503906 Z M 74.464844 39.292969 " fill-opacity="1" fill-rule="nonzero"/></g><g fill="#ffffff" fill-opacity="1"><g transform="translate(18.777917, 28.4155)"><g><path d="M 1.046875 -14.4375 C 2.097656 -14.4375 3.144531 -14.425781 4.1875 -14.40625 C 5.226562 -14.394531 6.28125 -14.390625 7.34375 -14.390625 C 8.375 -14.390625 9.40625 -14.394531 10.4375 -14.40625 C 11.46875 -14.425781 12.503906 -14.457031 13.546875 -14.5 C 13.722656 -14.507812 13.894531 -14.515625 14.0625 -14.515625 C 14.238281 -14.515625 14.414062 -14.515625 14.59375 -14.515625 C 14.726562 -14.515625 14.84375 -14.488281 14.9375 -14.4375 C 15.039062 -14.394531 15.09375 -14.296875 15.09375 -14.140625 C 15.09375 -13.953125 15.039062 -13.832031 14.9375 -13.78125 C 14.832031 -13.738281 14.695312 -13.703125 14.53125 -13.671875 C 14.382812 -13.640625 14.226562 -13.617188 14.0625 -13.609375 C 13.894531 -13.609375 13.738281 -13.601562 13.59375 -13.59375 L 12.046875 -13.46875 C 11.640625 -13.425781 11.234375 -13.378906 10.828125 -13.328125 C 10.421875 -13.285156 10.019531 -13.238281 9.625 -13.1875 C 9.5 -13.15625 9.375 -13.140625 9.25 -13.140625 C 9.132812 -13.140625 9.015625 -13.140625 8.890625 -13.140625 C 8.835938 -13.128906 8.789062 -13.113281 8.75 -13.09375 C 8.71875 -13.082031 8.703125 -13.039062 8.703125 -12.96875 C 8.703125 -12.75 8.691406 -12.535156 8.671875 -12.328125 C 8.648438 -12.117188 8.632812 -11.910156 8.625 -11.703125 C 8.59375 -11.210938 8.5625 -10.71875 8.53125 -10.21875 C 8.507812 -9.726562 8.492188 -9.238281 8.484375 -8.75 C 8.453125 -7.632812 8.410156 -6.523438 8.359375 -5.421875 C 8.316406 -4.328125 8.296875 -3.222656 8.296875 -2.109375 C 8.296875 -1.765625 8.367188 -1.476562 8.515625 -1.25 C 8.671875 -1.019531 8.929688 -0.90625 9.296875 -0.90625 C 9.429688 -0.90625 9.5625 -0.914062 9.6875 -0.9375 C 9.8125 -0.957031 9.941406 -0.96875 10.078125 -0.96875 C 10.128906 -0.96875 10.171875 -0.941406 10.203125 -0.890625 C 10.234375 -0.847656 10.25 -0.804688 10.25 -0.765625 C 10.25 -0.648438 10.21875 -0.570312 10.15625 -0.53125 C 10.101562 -0.488281 10.023438 -0.457031 9.921875 -0.4375 C 9.523438 -0.363281 9.125 -0.269531 8.71875 -0.15625 C 8.320312 -0.0507812 7.941406 0.0703125 7.578125 0.21875 C 7.523438 0.25 7.441406 0.285156 7.328125 0.328125 C 7.222656 0.378906 7.109375 0.429688 6.984375 0.484375 C 6.867188 0.546875 6.765625 0.597656 6.671875 0.640625 C 6.578125 0.679688 6.507812 0.703125 6.46875 0.703125 C 6.394531 0.703125 6.332031 0.679688 6.28125 0.640625 C 6.238281 0.609375 6.21875 0.5625 6.21875 0.5 C 6.21875 0.414062 6.257812 0.238281 6.34375 -0.03125 C 6.425781 -0.300781 6.484375 -0.53125 6.515625 -0.71875 C 6.578125 -1.332031 6.609375 -1.941406 6.609375 -2.546875 C 6.617188 -3.148438 6.640625 -3.753906 6.671875 -4.359375 C 6.710938 -5.472656 6.734375 -6.597656 6.734375 -7.734375 C 6.734375 -7.835938 6.734375 -8.015625 6.734375 -8.265625 C 6.734375 -8.515625 6.726562 -8.8125 6.71875 -9.15625 C 6.71875 -9.5 6.71875 -9.859375 6.71875 -10.234375 C 6.71875 -10.609375 6.707031 -10.960938 6.6875 -11.296875 C 6.675781 -11.640625 6.660156 -11.929688 6.640625 -12.171875 C 6.617188 -12.421875 6.59375 -12.578125 6.5625 -12.640625 C 6.539062 -12.710938 6.515625 -12.769531 6.484375 -12.8125 C 6.460938 -12.863281 6.414062 -12.910156 6.34375 -12.953125 C 6.269531 -12.992188 6.148438 -13.03125 5.984375 -13.0625 C 5.816406 -13.101562 5.632812 -13.128906 5.4375 -13.140625 C 5.25 -13.148438 5.0625 -13.160156 4.875 -13.171875 C 4.6875 -13.179688 4.550781 -13.1875 4.46875 -13.1875 C 4.007812 -13.1875 3.539062 -13.175781 3.0625 -13.15625 C 2.59375 -13.132812 2.140625 -13.0625 1.703125 -12.9375 C 1.429688 -12.863281 1.21875 -12.78125 1.0625 -12.6875 C 0.914062 -12.601562 0.753906 -12.453125 0.578125 -12.234375 C 0.546875 -12.191406 0.503906 -12.144531 0.453125 -12.09375 C 0.410156 -12.039062 0.351562 -12.015625 0.28125 -12.015625 C 0.164062 -12.015625 0.109375 -12.09375 0.109375 -12.25 C 0.109375 -12.40625 0.109375 -12.523438 0.109375 -12.609375 C 0.109375 -12.878906 0.0976562 -13.15625 0.078125 -13.4375 C 0.0664062 -13.71875 0.0625 -13.992188 0.0625 -14.265625 C 0.0625 -14.378906 0.101562 -14.4375 0.1875 -14.4375 Z M 1.046875 -14.4375 "/></g></g></g><g fill="#ffffff" fill-opacity="1"><g transform="translate(35.448212, 28.4155)"><g><path d="M 16.609375 -1.296875 C 16.609375 -1.242188 16.5625 -1.179688 16.46875 -1.109375 C 16.382812 -1.035156 16.28125 -0.957031 16.15625 -0.875 C 16.03125 -0.800781 15.890625 -0.71875 15.734375 -0.625 C 15.585938 -0.539062 15.457031 -0.445312 15.34375 -0.34375 C 15.082031 -0.15625 14.867188 0 14.703125 0.125 C 14.546875 0.257812 14.421875 0.367188 14.328125 0.453125 C 14.234375 0.535156 14.15625 0.597656 14.09375 0.640625 C 14.03125 0.679688 13.972656 0.703125 13.921875 0.703125 C 13.878906 0.703125 13.84375 0.695312 13.8125 0.6875 C 13.789062 0.675781 13.757812 0.648438 13.71875 0.609375 C 13.65625 0.554688 13.582031 0.441406 13.5 0.265625 C 13.425781 0.0859375 13.347656 -0.0820312 13.265625 -0.25 C 13.035156 -0.695312 12.835938 -1.09375 12.671875 -1.4375 C 12.503906 -1.789062 12.328125 -2.164062 12.140625 -2.5625 C 11.921875 -3.03125 11.707031 -3.492188 11.5 -3.953125 C 11.300781 -4.421875 11.109375 -4.890625 10.921875 -5.359375 C 10.710938 -5.367188 10.503906 -5.378906 10.296875 -5.390625 C 10.097656 -5.398438 9.894531 -5.40625 9.6875 -5.40625 C 9.5625 -5.40625 9.316406 -5.398438 8.953125 -5.390625 C 8.597656 -5.378906 8.179688 -5.363281 7.703125 -5.34375 C 7.234375 -5.320312 6.742188 -5.289062 6.234375 -5.25 C 5.722656 -5.207031 5.253906 -5.148438 4.828125 -5.078125 C 4.585938 -5.035156 4.347656 -4.972656 4.109375 -4.890625 C 3.867188 -4.816406 3.65625 -4.707031 3.46875 -4.5625 C 3.382812 -4.488281 3.285156 -4.398438 3.171875 -4.296875 C 3.066406 -4.191406 2.960938 -4.082031 2.859375 -3.96875 C 2.753906 -3.851562 2.65625 -3.738281 2.5625 -3.625 C 2.476562 -3.519531 2.414062 -3.441406 2.375 -3.390625 C 2.113281 -3.015625 1.832031 -2.625 1.53125 -2.21875 C 1.238281 -1.820312 0.953125 -1.4375 0.671875 -1.0625 C 0.390625 -0.6875 0.125 -0.335938 -0.125 -0.015625 C -0.375 0.296875 -0.578125 0.546875 -0.734375 0.734375 C -0.796875 0.796875 -0.875 0.882812 -0.96875 1 C -1.0625 1.125 -1.15625 1.1875 -1.25 1.1875 C -1.320312 1.1875 -1.378906 1.164062 -1.421875 1.125 C -1.472656 1.082031 -1.5 1.03125 -1.5 0.96875 C -1.5 0.882812 -1.46875 0.78125 -1.40625 0.65625 C -1.34375 0.53125 -1.273438 0.410156 -1.203125 0.296875 C -1.128906 0.179688 -1.050781 0.0703125 -0.96875 -0.03125 C -0.882812 -0.132812 -0.820312 -0.21875 -0.78125 -0.28125 C -0.375 -0.863281 0.015625 -1.441406 0.390625 -2.015625 C 0.773438 -2.585938 1.148438 -3.160156 1.515625 -3.734375 C 2.460938 -5.179688 3.382812 -6.640625 4.28125 -8.109375 C 5.175781 -9.585938 6 -11.109375 6.75 -12.671875 C 6.863281 -12.890625 6.960938 -13.128906 7.046875 -13.390625 C 7.140625 -13.660156 7.203125 -13.867188 7.234375 -14.015625 C 7.242188 -14.085938 7.253906 -14.160156 7.265625 -14.234375 C 7.273438 -14.304688 7.296875 -14.378906 7.328125 -14.453125 C 7.367188 -14.566406 7.421875 -14.640625 7.484375 -14.671875 C 7.546875 -14.703125 7.628906 -14.753906 7.734375 -14.828125 C 7.859375 -14.890625 8.015625 -14.960938 8.203125 -15.046875 C 8.398438 -15.128906 8.5625 -15.171875 8.6875 -15.171875 C 8.769531 -15.171875 8.828125 -15.160156 8.859375 -15.140625 C 8.890625 -15.117188 8.941406 -15.066406 9.015625 -14.984375 C 9.023438 -14.960938 9.046875 -14.910156 9.078125 -14.828125 C 9.117188 -14.753906 9.15625 -14.671875 9.1875 -14.578125 C 9.21875 -14.484375 9.25 -14.382812 9.28125 -14.28125 C 9.320312 -14.1875 9.347656 -14.113281 9.359375 -14.0625 C 9.878906 -12.394531 10.457031 -10.78125 11.09375 -9.21875 C 11.53125 -8.125 11.972656 -7.039062 12.421875 -5.96875 C 12.867188 -4.894531 13.367188 -3.835938 13.921875 -2.796875 C 14.003906 -2.628906 14.097656 -2.460938 14.203125 -2.296875 C 14.316406 -2.128906 14.4375 -1.976562 14.5625 -1.84375 C 14.695312 -1.71875 14.84375 -1.609375 15 -1.515625 C 15.164062 -1.429688 15.351562 -1.390625 15.5625 -1.390625 C 15.769531 -1.390625 15.929688 -1.421875 16.046875 -1.484375 C 16.171875 -1.546875 16.289062 -1.578125 16.40625 -1.578125 C 16.488281 -1.578125 16.539062 -1.546875 16.5625 -1.484375 C 16.59375 -1.421875 16.609375 -1.359375 16.609375 -1.296875 Z M 10.4375 -6.484375 C 9.988281 -7.390625 9.597656 -8.316406 9.265625 -9.265625 C 8.929688 -10.222656 8.617188 -11.179688 8.328125 -12.140625 C 8.304688 -12.234375 8.28125 -12.328125 8.25 -12.421875 C 8.226562 -12.515625 8.179688 -12.597656 8.109375 -12.671875 C 8.078125 -12.648438 8.054688 -12.632812 8.046875 -12.625 C 8.046875 -12.613281 8.03125 -12.59375 8 -12.5625 C 7.863281 -12.289062 7.734375 -12.007812 7.609375 -11.71875 C 7.492188 -11.4375 7.359375 -11.148438 7.203125 -10.859375 C 6.804688 -10.097656 6.375 -9.351562 5.90625 -8.625 C 5.445312 -7.894531 4.984375 -7.160156 4.515625 -6.421875 C 5.046875 -6.359375 5.578125 -6.3125 6.109375 -6.28125 C 6.648438 -6.25 7.179688 -6.234375 7.703125 -6.234375 C 8.148438 -6.234375 8.601562 -6.242188 9.0625 -6.265625 C 9.53125 -6.285156 9.988281 -6.359375 10.4375 -6.484375 Z M 10.4375 -6.484375 "/></g></g></g><g fill="#ffffff" fill-opacity="1"><g transform="translate(53.247628, 28.4155)"><g><path d="M 3.75 -2.40625 C 3.75 -2.269531 3.753906 -2.140625 3.765625 -2.015625 C 3.773438 -1.890625 3.796875 -1.78125 3.828125 -1.6875 C 3.859375 -1.59375 3.914062 -1.515625 4 -1.453125 C 4.082031 -1.390625 4.207031 -1.359375 4.375 -1.359375 C 4.632812 -1.359375 4.875 -1.425781 5.09375 -1.5625 C 5.320312 -1.707031 5.554688 -1.78125 5.796875 -1.78125 C 5.859375 -1.78125 5.910156 -1.753906 5.953125 -1.703125 C 6.003906 -1.660156 6.03125 -1.609375 6.03125 -1.546875 C 6.03125 -1.429688 5.972656 -1.335938 5.859375 -1.265625 C 5.742188 -1.203125 5.644531 -1.144531 5.5625 -1.09375 C 5.207031 -0.914062 4.84375 -0.742188 4.46875 -0.578125 C 4.09375 -0.421875 3.722656 -0.25 3.359375 -0.0625 C 3.023438 0.113281 2.695312 0.300781 2.375 0.5 C 2.050781 0.695312 1.734375 0.894531 1.421875 1.09375 C 1.359375 1.113281 1.300781 1.140625 1.25 1.171875 C 1.207031 1.203125 1.15625 1.21875 1.09375 1.21875 C 0.925781 1.21875 0.84375 1.125 0.84375 0.9375 C 0.84375 0.882812 0.878906 0.816406 0.953125 0.734375 C 1.023438 0.648438 1.113281 0.5625 1.21875 0.46875 C 1.320312 0.375 1.421875 0.28125 1.515625 0.1875 C 1.609375 0.09375 1.675781 -0.00390625 1.71875 -0.109375 C 1.78125 -0.222656 1.832031 -0.503906 1.875 -0.953125 C 1.925781 -1.398438 1.96875 -1.925781 2 -2.53125 C 2.03125 -3.144531 2.0625 -3.800781 2.09375 -4.5 C 2.125 -5.207031 2.148438 -5.882812 2.171875 -6.53125 C 2.191406 -7.175781 2.203125 -7.75 2.203125 -8.25 C 2.210938 -8.75 2.21875 -9.097656 2.21875 -9.296875 C 2.21875 -9.671875 2.21875 -10.039062 2.21875 -10.40625 C 2.21875 -10.78125 2.210938 -11.144531 2.203125 -11.5 C 2.203125 -11.71875 2.203125 -11.9375 2.203125 -12.15625 C 2.203125 -12.375 2.1875 -12.59375 2.15625 -12.8125 C 2.144531 -12.914062 2.128906 -13.003906 2.109375 -13.078125 C 2.085938 -13.148438 2.015625 -13.1875 1.890625 -13.1875 C 1.796875 -13.1875 1.664062 -13.148438 1.5 -13.078125 C 1.332031 -13.003906 1.160156 -12.929688 0.984375 -12.859375 C 0.816406 -12.785156 0.65625 -12.710938 0.5 -12.640625 C 0.34375 -12.578125 0.222656 -12.546875 0.140625 -12.546875 C 0.078125 -12.546875 0.0351562 -12.578125 0.015625 -12.640625 C -0.00390625 -12.710938 -0.015625 -12.785156 -0.015625 -12.859375 C -0.015625 -12.921875 0.015625 -12.984375 0.078125 -13.046875 C 0.140625 -13.109375 0.210938 -13.164062 0.296875 -13.21875 C 0.390625 -13.269531 0.476562 -13.3125 0.5625 -13.34375 C 0.65625 -13.382812 0.726562 -13.421875 0.78125 -13.453125 C 1.644531 -13.847656 2.535156 -14.1875 3.453125 -14.46875 C 4.378906 -14.757812 5.320312 -14.90625 6.28125 -14.90625 C 6.695312 -14.90625 7.113281 -14.878906 7.53125 -14.828125 C 7.945312 -14.785156 8.335938 -14.660156 8.703125 -14.453125 C 9.273438 -14.140625 9.703125 -13.726562 9.984375 -13.21875 C 10.265625 -12.71875 10.40625 -12.140625 10.40625 -11.484375 C 10.40625 -10.753906 10.269531 -10.132812 10 -9.625 C 9.726562 -9.125 9.425781 -8.703125 9.09375 -8.359375 C 8.769531 -8.023438 8.46875 -7.757812 8.1875 -7.5625 C 7.914062 -7.363281 7.78125 -7.203125 7.78125 -7.078125 C 7.78125 -7.015625 7.84375 -6.890625 7.96875 -6.703125 C 8.101562 -6.515625 8.269531 -6.296875 8.46875 -6.046875 C 8.675781 -5.804688 8.898438 -5.546875 9.140625 -5.265625 C 9.378906 -4.984375 9.613281 -4.71875 9.84375 -4.46875 C 10.082031 -4.226562 10.289062 -4.007812 10.46875 -3.8125 C 10.644531 -3.613281 10.769531 -3.476562 10.84375 -3.40625 C 11.195312 -3.050781 11.554688 -2.703125 11.921875 -2.359375 C 12.285156 -2.015625 12.664062 -1.691406 13.0625 -1.390625 C 13.25 -1.242188 13.441406 -1.101562 13.640625 -0.96875 C 13.835938 -0.832031 14.035156 -0.691406 14.234375 -0.546875 C 14.347656 -0.472656 14.46875 -0.398438 14.59375 -0.328125 C 14.726562 -0.253906 14.867188 -0.179688 15.015625 -0.109375 C 15.035156 -0.078125 15.066406 -0.0390625 15.109375 0 C 15.148438 0.03125 15.171875 0.0546875 15.171875 0.078125 C 15.171875 0.148438 15.101562 0.210938 14.96875 0.265625 C 14.84375 0.316406 14.691406 0.359375 14.515625 0.390625 C 14.347656 0.429688 14.1875 0.457031 14.03125 0.46875 C 13.875 0.488281 13.773438 0.5 13.734375 0.5 C 13.460938 0.5 13.179688 0.441406 12.890625 0.328125 C 12.671875 0.253906 12.453125 0.128906 12.234375 -0.046875 C 12.023438 -0.234375 11.832031 -0.410156 11.65625 -0.578125 C 10.988281 -1.160156 10.320312 -1.742188 9.65625 -2.328125 C 9 -2.921875 8.351562 -3.535156 7.71875 -4.171875 C 7.445312 -4.441406 7.171875 -4.71875 6.890625 -5 C 6.609375 -5.28125 6.34375 -5.570312 6.09375 -5.875 C 6.070312 -5.914062 6.03125 -5.96875 5.96875 -6.03125 C 5.90625 -6.101562 5.84375 -6.179688 5.78125 -6.265625 C 5.71875 -6.347656 5.660156 -6.425781 5.609375 -6.5 C 5.566406 -6.570312 5.546875 -6.632812 5.546875 -6.6875 C 5.546875 -6.800781 5.578125 -6.875 5.640625 -6.90625 C 5.703125 -6.9375 5.769531 -6.96875 5.84375 -7 C 6.695312 -7.351562 7.34375 -7.851562 7.78125 -8.5 C 8.21875 -9.144531 8.4375 -9.929688 8.4375 -10.859375 C 8.4375 -11.234375 8.378906 -11.609375 8.265625 -11.984375 C 8.160156 -12.359375 8 -12.695312 7.78125 -13 C 7.5625 -13.3125 7.289062 -13.5625 6.96875 -13.75 C 6.644531 -13.945312 6.28125 -14.046875 5.875 -14.046875 C 5.476562 -14.046875 5.113281 -13.921875 4.78125 -13.671875 C 4.5 -13.453125 4.320312 -13.210938 4.25 -12.953125 C 4.175781 -12.691406 4.128906 -12.382812 4.109375 -12.03125 C 4.023438 -10.726562 3.957031 -9.429688 3.90625 -8.140625 C 3.863281 -6.859375 3.8125 -5.566406 3.75 -4.265625 C 3.738281 -4.078125 3.726562 -3.882812 3.71875 -3.6875 C 3.71875 -3.5 3.722656 -3.3125 3.734375 -3.125 Z M 3.75 -2.40625 "/></g></g></g><g fill="#ffffff" fill-opacity="1"><g transform="translate(69.158333, 28.4155)"><g><path d="M 1.046875 -14.4375 C 2.097656 -14.4375 3.144531 -14.425781 4.1875 -14.40625 C 5.226562 -14.394531 6.28125 -14.390625 7.34375 -14.390625 C 8.375 -14.390625 9.40625 -14.394531 10.4375 -14.40625 C 11.46875 -14.425781 12.503906 -14.457031 13.546875 -14.5 C 13.722656 -14.507812 13.894531 -14.515625 14.0625 -14.515625 C 14.238281 -14.515625 14.414062 -14.515625 14.59375 -14.515625 C 14.726562 -14.515625 14.84375 -14.488281 14.9375 -14.4375 C 15.039062 -14.394531 15.09375 -14.296875 15.09375 -14.140625 C 15.09375 -13.953125 15.039062 -13.832031 14.9375 -13.78125 C 14.832031 -13.738281 14.695312 -13.703125 14.53125 -13.671875 C 14.382812 -13.640625 14.226562 -13.617188 14.0625 -13.609375 C 13.894531 -13.609375 13.738281 -13.601562 13.59375 -13.59375 L 12.046875 -13.46875 C 11.640625 -13.425781 11.234375 -13.378906 10.828125 -13.328125 C 10.421875 -13.285156 10.019531 -13.238281 9.625 -13.1875 C 9.5 -13.15625 9.375 -13.140625 9.25 -13.140625 C 9.132812 -13.140625 9.015625 -13.140625 8.890625 -13.140625 C 8.835938 -13.128906 8.789062 -13.113281 8.75 -13.09375 C 8.71875 -13.082031 8.703125 -13.039062 8.703125 -12.96875 C 8.703125 -12.75 8.691406 -12.535156 8.671875 -12.328125 C 8.648438 -12.117188 8.632812 -11.910156 8.625 -11.703125 C 8.59375 -11.210938 8.5625 -10.71875 8.53125 -10.21875 C 8.507812 -9.726562 8.492188 -9.238281 8.484375 -8.75 C 8.453125 -7.632812 8.410156 -6.523438 8.359375 -5.421875 C 8.316406 -4.328125 8.296875 -3.222656 8.296875 -2.109375 C 8.296875 -1.765625 8.367188 -1.476562 8.515625 -1.25 C 8.671875 -1.019531 8.929688 -0.90625 9.296875 -0.90625 C 9.429688 -0.90625 9.5625 -0.914062 9.6875 -0.9375 C 9.8125 -0.957031 9.941406 -0.96875 10.078125 -0.96875 C 10.128906 -0.96875 10.171875 -0.941406 10.203125 -0.890625 C 10.234375 -0.847656 10.25 -0.804688 10.25 -0.765625 C 10.25 -0.648438 10.21875 -0.570312 10.15625 -0.53125 C 10.101562 -0.488281 10.023438 -0.457031 9.921875 -0.4375 C 9.523438 -0.363281 9.125 -0.269531 8.71875 -0.15625 C 8.320312 -0.0507812 7.941406 0.0703125 7.578125 0.21875 C 7.523438 0.25 7.441406 0.285156 7.328125 0.328125 C 7.222656 0.378906 7.109375 0.429688 6.984375 0.484375 C 6.867188 0.546875 6.765625 0.597656 6.671875 0.640625 C 6.578125 0.679688 6.507812 0.703125 6.46875 0.703125 C 6.394531 0.703125 6.332031 0.679688 6.28125 0.640625 C 6.238281 0.609375 6.21875 0.5625 6.21875 0.5 C 6.21875 0.414062 6.257812 0.238281 6.34375 -0.03125 C 6.425781 -0.300781 6.484375 -0.53125 6.515625 -0.71875 C 6.578125 -1.332031 6.609375 -1.941406 6.609375 -2.546875 C 6.617188 -3.148438 6.640625 -3.753906 6.671875 -4.359375 C 6.710938 -5.472656 6.734375 -6.597656 6.734375 -7.734375 C 6.734375 -7.835938 6.734375 -8.015625 6.734375 -8.265625 C 6.734375 -8.515625 6.726562 -8.8125 6.71875 -9.15625 C 6.71875 -9.5 6.71875 -9.859375 6.71875 -10.234375 C 6.71875 -10.609375 6.707031 -10.960938 6.6875 -11.296875 C 6.675781 -11.640625 6.660156 -11.929688 6.640625 -12.171875 C 6.617188 -12.421875 6.59375 -12.578125 6.5625 -12.640625 C 6.539062 -12.710938 6.515625 -12.769531 6.484375 -12.8125 C 6.460938 -12.863281 6.414062 -12.910156 6.34375 -12.953125 C 6.269531 -12.992188 6.148438 -13.03125 5.984375 -13.0625 C 5.816406 -13.101562 5.632812 -13.128906 5.4375 -13.140625 C 5.25 -13.148438 5.0625 -13.160156 4.875 -13.171875 C 4.6875 -13.179688 4.550781 -13.1875 4.46875 -13.1875 C 4.007812 -13.1875 3.539062 -13.175781 3.0625 -13.15625 C 2.59375 -13.132812 2.140625 -13.0625 1.703125 -12.9375 C 1.429688 -12.863281 1.21875 -12.78125 1.0625 -12.6875 C 0.914062 -12.601562 0.753906 -12.453125 0.578125 -12.234375 C 0.546875 -12.191406 0.503906 -12.144531 0.453125 -12.09375 C 0.410156 -12.039062 0.351562 -12.015625 0.28125 -12.015625 C 0.164062 -12.015625 0.109375 -12.09375 0.109375 -12.25 C 0.109375 -12.40625 0.109375 -12.523438 0.109375 -12.609375 C 0.109375 -12.878906 0.0976562 -13.15625 0.078125 -13.4375 C 0.0664062 -13.71875 0.0625 -13.992188 0.0625 -14.265625 C 0.0625 -14.378906 0.101562 -14.4375 0.1875 -14.4375 Z M 1.046875 -14.4375 "/></g></g></g><g clip-path="url(#cdbb1c8418)"><path fill="#178fc7" d="M 15.535156 31.921875 L 2.425781 18.8125 L 15.535156 5.699219 L 14.324219 4.488281 L 0 18.8125 L 14.324219 33.136719 Z M 15.535156 31.921875 " fill-opacity="1" fill-rule="nonzero"/></g><g clip-path="url(#ce780768e4)"><g clip-path="url(#78625e45e4)"><path fill="#ffffff" d="M 25.617188 9.113281 L 23.34375 9.113281 L 23.34375 6.839844 L 25.617188 6.839844 Z M 25.617188 9.113281 " fill-opacity="1" fill-rule="nonzero"/></g></g><g clip-path="url(#0b7233baec)"><g clip-path="url(#6316450a2b)"><path fill="#9fabb4" d="M 22.34375 9.113281 L 20.070312 9.113281 L 20.070312 6.839844 L 22.34375 6.839844 Z M 22.34375 9.113281 " fill-opacity="1" fill-rule="nonzero"/></g></g><g clip-path="url(#a64df30506)"><g clip-path="url(#e1a1253600)"><path fill="#4f5255" d="M 19.054688 9.113281 L 16.78125 9.113281 L 16.78125 6.839844 L 19.054688 6.839844 Z M 19.054688 9.113281 " fill-opacity="1" fill-rule="nonzero"/></g></g></svg>